<svg width="31" height="34" viewBox="0 0 31 34" fill="none" xmlns="http://www.w3.org/2000/svg">
<path d="M30.037 8.17828H28.0555V3.10753C28.0545 2.28366 27.7268 1.49381 27.1442 0.911242C26.5617 0.328678 25.7718 0.000967553 24.948 0H5.63742C4.81355 0.000967553 4.0237 0.328678 3.44113 0.911242C2.85857 1.49381 2.53086 2.28366 2.52989 3.10753V8.17828H0.548387C0.402946 8.17828 0.263461 8.23606 0.160619 8.3389C0.0577763 8.44174 0 8.58123 0 8.72667V28.103C0 28.2485 0.0577763 28.3879 0.160619 28.4908C0.263461 28.5936 0.402946 28.6514 0.548387 28.6514H14.7443V32.9032H10.4194C10.2739 32.9032 10.1344 32.961 10.0316 33.0638C9.92874 33.1667 9.87097 33.3062 9.87097 33.4516C9.87097 33.5971 9.92874 33.7365 10.0316 33.8394C10.1344 33.9422 10.2739 34 10.4194 34H20.166C20.3115 34 20.4509 33.9422 20.5538 33.8394C20.6566 33.7365 20.7144 33.5971 20.7144 33.4516C20.7144 33.3062 20.6566 33.1667 20.5538 33.0638C20.4509 32.961 20.3115 32.9032 20.166 32.9032H15.8411V28.6477H30.037C30.1824 28.6477 30.3219 28.59 30.4248 28.4871C30.5276 28.3843 30.5854 28.2448 30.5854 28.0994V8.72301C30.5844 8.5782 30.5262 8.43966 30.4235 8.3376C30.3207 8.23555 30.1818 8.17828 30.037 8.17828ZM3.62667 8.17828V3.66688H26.9587V16.1372C26.9587 16.6705 26.7469 17.1819 26.3698 17.559C25.9927 17.9361 25.4812 18.148 24.948 18.148H12.5178V15.5596H14.4372C14.9319 15.5577 15.4073 15.3678 15.7671 15.0284C16.127 14.6889 16.3442 14.2253 16.3748 13.7316L16.7551 12.6129H24.4946V5.64108H14.6492V12.6129H15.5998L15.4389 13.0553H13.9071V11.0372C13.906 10.6664 13.7991 10.3037 13.599 9.99157C13.3989 9.67944 13.1139 9.43087 12.7774 9.27505C12.5209 9.15083 12.2398 9.08586 11.9548 9.08495H8.04301C7.75803 9.08586 7.47691 9.15083 7.22043 9.27505C6.884 9.43087 6.599 9.67944 6.3989 9.99157C6.1988 10.3037 6.0919 10.6664 6.09075 11.0372V16.1555C6.09213 16.5762 6.22962 16.9851 6.48266 17.3212C6.7357 17.6572 7.09071 17.9024 7.49462 18.02V18.1333H5.63742C5.10413 18.1333 4.59269 17.9215 4.2156 17.5444C3.83851 17.1673 3.62667 16.6559 3.62667 16.1226V8.17828ZM9.87097 1.10774V2.57011H3.70344C3.82332 2.14943 4.07687 1.7792 4.42578 1.51537C4.77469 1.25155 5.19999 1.10846 5.63742 1.10774H9.87097ZM10.9677 1.10774H24.948C25.3854 1.10846 25.8107 1.25155 26.1596 1.51537C26.5085 1.7792 26.7621 2.14943 26.8819 2.57011H10.9677V1.10774ZM10.54 18.148V17.7312H9.44322V18.1662H8.5914V16.9963H11.4065V17.5923V18.1662L10.54 18.148ZM15.746 11.5161V6.73785H23.3978V11.5161H17.1572L17.6946 10.0172L16.6637 9.65161L15.991 11.5161H15.746ZM11.9548 10.1817C12.1817 10.1817 12.3993 10.2719 12.5598 10.4323C12.7202 10.5927 12.8103 10.8103 12.8103 11.0372V14.152H15.0806C15.0007 14.2492 14.9003 14.3275 14.7865 14.3812C14.6727 14.435 14.5484 14.4628 14.4226 14.4628H12.5032V12.4849C12.5032 12.3395 12.4454 12.2 12.3426 12.0972C12.2398 11.9943 12.1003 11.9366 11.9548 11.9366C11.8094 11.9366 11.6699 11.9943 11.5671 12.0972C11.4642 12.2 11.4065 12.3395 11.4065 12.4849V15.8813H8.5914V12.4849C8.5914 12.3395 8.53362 12.2 8.43078 12.0972C8.32794 11.9943 8.18845 11.9366 8.04301 11.9366C7.89757 11.9366 7.75808 11.9943 7.65524 12.0972C7.5524 12.2 7.49462 12.3395 7.49462 12.4849V16.8209C7.39886 16.7415 7.32171 16.6421 7.26864 16.5297C7.21557 16.4172 7.18788 16.2945 7.18753 16.1701V11.0518C7.18753 10.8249 7.27766 10.6073 7.43809 10.4469C7.59853 10.2865 7.81612 10.1963 8.04301 10.1963L11.9548 10.1817ZM29.5032 27.551H1.09677V9.2714H2.52989V16.1372C2.53086 16.9611 2.85857 17.7509 3.44113 18.3335C4.0237 18.9161 4.81355 19.2438 5.63742 19.2447H7.88215C7.98793 19.2788 8.10175 19.2788 8.20753 19.2447H24.948C25.7718 19.2438 26.5617 18.9161 27.1442 18.3335C27.7268 17.7509 28.0545 16.9611 28.0555 16.1372V9.27505H29.4886L29.5032 27.551Z" fill="#57D9A3"/>
<path d="M5.45468 22.1621H4.35791V24.6335H5.45468V22.1621Z" fill="#57D9A3"/>
<path d="M3.62632 22.1621H2.52954V24.6335H3.62632V22.1621Z" fill="#57D9A3"/>
<path d="M14.2877 21.215C13.8053 21.2175 13.3372 21.379 12.9559 21.6744C12.5745 21.9699 12.3012 22.3828 12.1782 22.8492H6.69434V23.946H12.1782C12.3111 24.4016 12.5882 24.8018 12.9679 25.0866C13.3476 25.3714 13.8094 25.5253 14.284 25.5253C14.7586 25.5253 15.2204 25.3714 15.6001 25.0866C15.9798 24.8018 16.2569 24.4016 16.3898 23.946H27.5038V22.8492H16.3898C16.2671 22.384 15.9949 21.972 15.6151 21.6767C15.2352 21.3814 14.7688 21.2191 14.2877 21.215ZM14.2877 24.4797C14.045 24.4825 13.8082 24.4048 13.6145 24.2586C13.4207 24.1124 13.2809 23.9061 13.217 23.672C13.153 23.4379 13.1685 23.1891 13.2611 22.9648C13.3536 22.7404 13.518 22.5531 13.7284 22.4321C13.9388 22.3112 14.1834 22.2635 14.4239 22.2964C14.6643 22.3294 14.8871 22.4411 15.0572 22.6142C15.2273 22.7873 15.3352 23.012 15.364 23.253C15.3928 23.4939 15.3408 23.7377 15.2163 23.946C15.12 24.1069 14.9841 24.2405 14.8216 24.3339C14.659 24.4274 14.4752 24.4776 14.2877 24.4797ZM10.098 8.81048C10.5003 8.81048 10.8935 8.69132 11.2282 8.46804C11.5628 8.24477 11.8238 7.92738 11.9783 7.55593C12.1327 7.18447 12.1737 6.77559 12.096 6.38088C12.0183 5.98617 11.8254 5.62332 11.5417 5.3381C11.258 5.05288 10.8962 4.85808 10.5019 4.77827C10.1077 4.69846 9.69857 4.73723 9.32629 4.88967C8.95401 5.04212 8.63522 5.30141 8.41015 5.63484C8.18508 5.96827 8.06381 6.36089 8.06165 6.76317C8.06453 7.30235 8.28 7.81863 8.66126 8.1999C9.04253 8.58117 9.55881 8.79663 10.098 8.79951V8.81048ZM10.098 5.83457C10.2843 5.83458 10.4664 5.88997 10.6211 5.99371C10.7759 6.09744 10.8963 6.24484 10.967 6.41716C11.0378 6.58948 11.0558 6.77896 11.0186 6.96151C10.9815 7.14406 10.8909 7.31145 10.7584 7.4424C10.6259 7.57336 10.4575 7.66197 10.2745 7.69697C10.0915 7.73198 9.90225 7.7118 9.73077 7.639C9.55929 7.5662 9.41332 7.44407 9.31141 7.28812C9.2095 7.13217 9.15625 6.94945 9.15842 6.76317C9.16131 6.51589 9.26157 6.27971 9.43746 6.10587C9.61336 5.93203 9.85069 5.83455 10.098 5.83457ZM17.6475 9.51607C17.752 9.6185 17.8923 9.67619 18.0386 9.67693C18.1839 9.67601 18.323 9.61828 18.4262 9.51607C18.4916 9.44826 18.5393 9.3654 18.5651 9.27478C18.5778 9.22699 18.5851 9.17795 18.587 9.12855C18.5871 8.98205 18.5293 8.84146 18.4262 8.73736C18.3197 8.64025 18.1809 8.58642 18.0368 8.58642C17.8927 8.58642 17.7539 8.64025 17.6475 8.73736C17.5457 8.84232 17.4881 8.98235 17.4866 9.12855C17.4867 9.1781 17.4941 9.22737 17.5085 9.27478C17.5341 9.36552 17.5818 9.44845 17.6475 9.51607ZM20.7184 9.51607C20.7971 9.59039 20.8943 9.64216 20.9999 9.66597H21.106C21.1796 9.6693 21.2532 9.65775 21.3223 9.63199C21.3914 9.60624 21.4546 9.56681 21.5081 9.51607C21.5735 9.44826 21.6212 9.3654 21.647 9.27478C21.6597 9.22699 21.667 9.17795 21.669 9.12855C21.669 9.09199 21.669 9.05543 21.669 9.01887C21.6613 8.98376 21.6503 8.94948 21.6361 8.9165C21.6212 8.88368 21.6041 8.85192 21.5849 8.82145C21.5626 8.79059 21.5368 8.76238 21.5081 8.73736C21.483 8.71347 21.4561 8.69147 21.4277 8.67156C21.3976 8.65169 21.3658 8.63456 21.3326 8.62037C21.2955 8.60422 21.256 8.59433 21.2156 8.59113C21.1271 8.57358 21.0356 8.57772 20.9491 8.60319C20.8625 8.62865 20.7834 8.67469 20.7184 8.73736C20.6695 8.79 20.63 8.85058 20.6014 8.9165C20.572 8.98328 20.557 9.05556 20.5576 9.12855C20.5595 9.17795 20.5668 9.22699 20.5795 9.27478C20.6053 9.3654 20.653 9.44826 20.7184 9.51607ZM19.044 9.27478L19.0659 9.33693C19.0945 9.40286 19.1341 9.46344 19.1829 9.51607C19.287 9.61916 19.4276 9.67697 19.5741 9.67693H19.6801C19.7152 9.6693 19.7495 9.65828 19.7825 9.64403C19.8484 9.61549 19.909 9.57593 19.9616 9.52704C19.9924 9.49785 20.0205 9.46605 20.0457 9.43199C20.0663 9.40235 20.0835 9.37046 20.0969 9.33693L20.1189 9.27478V9.23457C20.1223 9.19931 20.1223 9.1638 20.1189 9.12855C20.1163 8.98258 20.0588 8.84293 19.958 8.73736C19.9316 8.71341 19.9035 8.69141 19.8739 8.67156C19.8443 8.65094 19.8124 8.63377 19.7789 8.62037C19.7475 8.60602 19.7143 8.59617 19.6801 8.59113C19.5916 8.5739 19.5002 8.57818 19.4137 8.60363C19.3272 8.62908 19.248 8.67495 19.1829 8.73736C19.0808 8.84183 19.0243 8.98249 19.0257 9.12855C19.0222 9.1638 19.0222 9.19932 19.0257 9.23457L19.044 9.27478Z" fill="#57D9A3"/>
</svg>
